<?xml version="1.0"?>
<svg width="1024" height="1024" xmlns="http://www.w3.org/2000/svg" xmlns:svg="http://www.w3.org/2000/svg" enable-background="new 0 0 1024 1024" version="1.1" xml:space="preserve">
 <g class="layer">
  <title>Layer 1</title>
  <ellipse cx="510.5" cy="469" fill="#fdc700" id="svg_5" rx="140.5" ry="119" stroke="#000000"/>
  <path d="m508.34,519.29c-11.13,-1.93 -20.45,-6.11 -26.59,-15.61c-3.31,-5.13 -3.28,-9.9 0.07,-12.62c4.16,-3.38 8.45,-2.75 13.17,1.93c11.84,11.72 25.96,11.65 37.75,-0.2c4.3,-4.32 8.42,-5.04 12.44,-2.16c3.62,2.58 4.11,7.48 0.93,12.54c-6.54,10.41 -16.53,14.96 -28.34,16.11c-2.96,0.29 -5.98,0.03 -9.43,0.01z" fill="#000000" id="svg_2" opacity="1"/>
  <path d="m434.43,474.21c-2.49,-7.61 -2.29,-14.8 0.48,-21.86c2.48,-6.33 8.72,-10.81 14.42,-10.56c5.63,0.24 10.85,4.83 13.14,11.39c2.34,6.69 2.21,13.28 0.02,20.03c-2.6,8.04 -7.2,12.71 -13.38,12.97c-6.29,0.26 -11.43,-3.84 -14.68,-11.97z" fill="#000000" id="svg_3" opacity="1"/>
  <path d="m576.45,441.97c6.89,-0.33 11.71,2.71 14.58,8.24c4.93,9.48 4.86,19.22 -0.39,28.56c-5.16,9.18 -15.74,9.78 -22.2,1.53c-6.08,-7.78 -6.75,-23.26 -1.42,-31.61c2.17,-3.39 5.29,-5.41 9.43,-6.72z" fill="#000000" id="svg_4" opacity="1"/>
  <ellipse cx="510" cy="664" fill="#fdc700" id="svg_6" rx="177" ry="119" stroke="#000000" stroke-opacity="0"/>
  <ellipse cx="501.5" cy="728" fill="#fdc700" id="svg_7" rx="157" ry="121" stroke="#000000" stroke-opacity="0"/>
  <path d="m505.87,886.51c-4.96,-3.94 -8.22,-8.84 -11.03,-13.91c-1.87,-3.39 -4.41,-4.7 -7.85,-5.17c-40,-5.5 -74.85,-22.11 -104.27,-49.59c-33.23,-31.04 -53.55,-69.28 -60.88,-114.19c-4.16,-25.46 -2.19,-50.7 4.1,-75.64c0.4,-1.58 0.7,-3.19 1.14,-5.25c-10.63,-0.4 -20.89,-0.69 -31.04,-2.38c-47.52,-7.9 -88.32,-27.1 -115.58,-68.86c-11.36,-17.4 -16.54,-36.62 -14.71,-57.45c2.52,-28.45 25.48,-53.46 53.69,-58.35c26.28,-4.56 50.46,2.15 73.4,14.61c23.36,12.69 42.2,30.68 59.12,50.88c0.85,1.02 1.69,2.05 2.61,3.01c0.3,0.32 0.81,0.43 2.07,1.05c-1.85,-8.52 -2.06,-16.54 -2.02,-24.6c0.14,-27.03 8.56,-51.4 24.24,-73.14c3.78,-5.25 6.04,-10.42 6.67,-16.65c2,-19.66 4.09,-39.31 6.16,-58.96c0.39,-3.8 0.38,-7.71 1.36,-11.36c1.14,-4.28 -0.6,-6.15 -4.21,-7.57c-23.56,-9.22 -47.09,-18.52 -70.64,-27.79c-5.26,-2.07 -10.56,-4.06 -15.79,-6.22c-6.92,-2.87 -11,-7.99 -10.57,-13.74c0.51,-6.72 4.55,-10.67 10.69,-13.09c38.09,-15.03 76.14,-30.16 114.2,-45.27c27.69,-11 55.43,-21.88 83.01,-33.13c7.6,-3.1 14.63,-3.09 22.16,-0.08c50.08,20 100.23,39.86 150.35,59.77c15.47,6.15 30.93,12.33 46.41,18.43c6.2,2.44 10.57,6.15 10.75,13.44c0.15,6.04 -2.54,10.31 -7.81,12.8c-4.8,2.28 -9.76,4.28 -14.77,6.06c-3.01,1.08 -4.25,2.86 -4.11,5.94c0.91,21.16 0.23,42.32 0.36,63.48c0.02,3.19 0.73,5.5 3.54,7.62c10,7.54 11.3,21.35 3.26,30.95c-7.4,8.84 -21.57,9.73 -30.49,1.9c-8.52,-7.49 -9.48,-22.27 -1.24,-30.57c3.74,-3.77 4.59,-7.57 4.57,-12.43c-0.09,-17.17 0.11,-34.33 0.18,-51.5c0.01,-1.64 0.28,-3.33 -0.48,-4.84c-0.87,-0.57 -1.64,-0.26 -2.42,0.04c-15.62,6.21 -31.23,12.44 -46.88,18.58c-3.13,1.23 -4.51,2.64 -4,6.58c2.6,20.25 4.75,40.55 7.03,60.83c0.26,2.31 0.49,4.65 0.48,6.97c-0.07,8.95 4.31,15.84 9.22,22.98c18.2,26.47 24.8,55.88 20.59,87.73c-0.18,1.31 -0.24,2.65 -0.25,3.98c0,0.42 0.32,0.85 0.74,1.86c2.5,-2.87 4.72,-5.46 6.97,-8.02c18.69,-21.21 39.63,-39.62 65.8,-51.08c23.75,-10.41 48.19,-15.15 73.69,-6.46c23.65,8.06 41.14,31.7 43.08,56.32c2.6,32.93 -12.14,58.35 -34.28,80.23c-25.97,25.66 -58.04,39.46 -93.84,45.18c-9.05,1.44 -18.14,2.23 -27.26,2.76c-4.4,0.25 -5.45,2.19 -4.34,6.17c5.75,20.76 7.01,42.04 5.34,63.31c-2.13,27.02 -10.09,52.57 -23.67,76.1c-28.54,49.47 -70.07,82.09 -125.81,95.92c-6.28,1.55 -12.7,2.54 -19.1,3.49c-2.43,0.35 -3.9,1.31 -5.05,3.39c-2.5,4.54 -5.45,8.79 -8.92,12.63c-4.17,4.62 -7.54,5.18 -13.67,2.3m-123.13,-376.77c11.53,32.7 35.02,52.77 67.42,62.95c24.86,7.82 50.39,10.13 76.41,8.25c22.1,-1.59 43.5,-5.59 63.51,-15.53c39.26,-19.5 59.91,-59 52.34,-101.58c-7.21,-40.61 -31.17,-67.55 -69.97,-80.41c-38.46,-12.74 -77.64,-12.45 -116.5,-1.49c-23.27,6.56 -43.68,18.53 -57.86,38.75c-18.83,26.85 -24.1,56.45 -15.35,89.06m137.07,157.64c-19.18,0.78 -38.24,-0.42 -57.17,-3.55c-36.44,-6.03 -70.15,-19.23 -101.47,-38.75c-6.04,-3.77 -8.89,-2.48 -10.82,4.4c-2.7,9.62 -4.35,19.45 -5.85,29.3c-2.44,16.04 -1.85,17.02 12.03,25.37c41.08,24.71 86.07,37.02 133.46,40.28c30.93,2.13 61.84,0.41 92.26,-6.72c32.87,-7.72 63.99,-19.37 91.78,-39.04c3.58,-2.53 5.04,-5.39 4.63,-9.63c-1.32,-13.75 -3.25,-27.39 -7.16,-40.68c-1.84,-6.25 -3.64,-6.91 -9.16,-3.4c-43.19,27.54 -90.52,41.19 -142.53,42.42m309.72,-144.33c0.9,-3.03 1.96,-6.02 2.69,-9.08c4.78,-20.22 -3.5,-40.32 -20.94,-50.16c-12.95,-7.31 -26.9,-6.85 -40.81,-3.83c-23.97,5.2 -43.75,18.18 -61.69,34.32c-18.22,16.39 -32.35,36.22 -46.63,55.91c-2.04,2.82 -1.15,4.81 0.51,7.12c8.77,12.22 16.29,25.16 22.13,39.03c1.1,2.63 2.75,3.5 5.38,3.29c8.62,-0.67 17.25,-1.13 25.84,-1.96c22.14,-2.15 43.01,-8.51 62.41,-19.47c22.65,-12.81 40.69,-29.95 51.11,-55.17m-508.93,75.63c4,0.04 8,0.03 11.99,0.14c2.25,0.07 3.8,-0.69 4.74,-2.83c6.17,-14.09 14.22,-27.11 22.98,-39.7c1.55,-2.22 1.71,-4.14 0.08,-6.35c-18.53,-25.1 -37.63,-49.73 -63.19,-68.26c-20.49,-14.85 -42.63,-25.45 -68.9,-23.34c-27.58,2.23 -42.05,27.54 -39.51,49.65c2.09,18.12 11.05,33.08 23.42,45.87c29.29,30.3 66.59,41.91 108.39,44.82m280.76,202.38c-70.37,21.67 -139.66,15.92 -208.34,-8.94c0.83,3.88 3.21,5.75 5.37,7.67c38.7,34.48 83.45,50.47 135.43,43.93c31.45,-3.96 58.86,-17.09 83.06,-37.29c1.81,-1.51 3.13,-3.11 1.81,-5.55c-1.28,-2.37 -3.05,-4 -6.03,-3.16c-3.52,1 -7.03,2.04 -11.3,3.34z" fill="#000000" id="svg_1" opacity="1" transform="matrix(1 0 0 1 0 0)"/>
 </g>
</svg>