<svg width="1024" height="1024" xmlns="http://www.w3.org/2000/svg" xml:space="preserve" version="1.1" enable-background="new 0 0 1024 1024">
 <g class="layer">
  <title>Layer 1</title>
  <g stroke="null" id="svg_8">
   <ellipse stroke="#000000" ry="166.31072" rx="200.04277" id="svg_5" fill="#fdc700" cy="430.30909" cx="510.75492"/>
   <path stroke="null" id="svg_2" fill="#000000" d="m507.67953,500.59284c-15.8468,-2.69731 -29.11655,-8.53915 -37.85863,-21.81605c-4.71275,-7.16953 -4.67004,-13.83593 0.09967,-17.63732c5.92297,-4.72378 12.03104,-3.84331 18.75134,2.69731c16.8577,16.37951 36.96164,16.28168 53.74815,-0.27951c6.12231,-6.0375 11.98833,-7.04375 17.71197,-3.01875c5.15413,3.60573 5.85179,10.45382 1.32413,17.52552c-9.3116,14.54869 -23.53528,20.90763 -40.35026,22.51484c-4.21442,0.4053 -8.51428,0.04193 -13.42636,0.01398z"/>
   <path stroke="null" id="svg_3" fill="#000000" d="m402.44706,437.59043c-3.54524,-10.6355 -3.26048,-20.68402 0.68342,-30.55086c3.531,-8.84661 12.41547,-15.10772 20.53108,-14.75833c8.01595,0.33542 15.44814,6.75026 18.70863,15.91831c3.33167,9.34974 3.14658,18.55972 0.02848,27.99331c-3.70186,11.23646 -10.2513,17.7631 -19.05034,18.12647c-8.95565,0.36337 -16.27394,-5.36667 -20.90127,-16.7289z"/>
   <path stroke="null" id="svg_4" fill="#000000" d="m604.654,392.5328c9.80993,-0.4612 16.6726,3.78741 20.75889,11.51597c7.01929,13.24895 6.91963,26.86128 -0.55528,39.91457c-7.34677,12.82968 -22.41049,13.66823 -31.60818,2.13828c-8.65666,-10.87309 -9.6106,-32.50746 -2.02178,-44.17716c3.08963,-4.73776 7.53186,-7.56085 13.42636,-9.39166z"/>
   <ellipse stroke="#000000" stroke-opacity="0" ry="166.31072" rx="252.01118" id="svg_6" fill="#fdc700" cy="702.83506" cx="510.04302"/>
   <ellipse stroke="#000000" stroke-opacity="0" ry="169.10586" rx="223.53534" id="svg_7" fill="#fdc700" cy="792.27948" cx="497.94079"/>
   <path stroke="null" id="svg_1" fill="#000000" d="m504.16276,1013.80815c-7.06201,-5.50642 -11.70357,-12.35451 -15.70443,-19.44019c-2.66249,-4.73776 -6.27892,-6.56857 -11.17677,-7.22543c-56.95168,-7.68663 -106.57083,-30.90025 -148.45879,-69.30545c-47.31261,-43.38054 -76.24406,-96.82358 -86.68046,-159.58841c-5.92297,-35.58211 -3.1181,-70.85675 5.83755,-105.71212c0.56952,-2.20816 0.99665,-4.45825 1.62312,-7.33724c-15.13491,-0.55903 -29.74301,-0.96432 -44.1945,-3.32621c-67.65859,-11.0408 -125.74931,-37.87412 -164.56188,-96.23661c-16.17428,-24.3177 -23.54952,-51.17898 -20.94398,-80.29034c3.58796,-39.76084 36.27822,-74.71404 76.44339,-81.54815c37.41725,-6.37291 71.84454,3.00477 104.50633,20.41848c33.25978,17.73515 60.08402,42.87742 84.17458,71.10831c1.21022,1.42552 2.40621,2.86502 3.7161,4.20668c0.42714,0.44722 1.15327,0.60095 2.94725,1.46745c-2.63402,-11.90729 -2.93301,-23.11579 -2.87606,-34.3802c0.19933,-37.77629 12.18766,-71.83505 34.51272,-102.2182c5.38193,-7.33724 8.5997,-14.56267 9.49669,-23.26952c2.84758,-27.47621 5.82331,-54.93844 8.77056,-82.40067c0.55528,-5.31076 0.54104,-10.77526 1.93636,-15.87638c1.62312,-5.9816 -0.85428,-8.59505 -5.99416,-10.5796c-33.54454,-12.88559 -67.04636,-25.88298 -100.57666,-38.83844c-7.48915,-2.89297 -15.03524,-5.67413 -22.48168,-8.69288c-9.85264,-4.01102 -15.66171,-11.16658 -15.04948,-19.2026c0.72613,-9.39166 6.47825,-14.91206 15.22034,-18.29418c54.23224,-21.00546 108.40752,-42.15068 162.59704,-63.26795c39.4248,-15.37326 78.92079,-30.57881 118.18897,-46.30146c10.82082,-4.33246 20.83008,-4.31849 31.55123,-0.11181c71.3035,27.95138 142.70667,55.7071 214.06712,83.5327c22.02606,8.59505 44.03789,17.23203 66.07819,25.7572c8.82751,3.41007 15.04948,8.59505 15.30576,18.78333c0.21357,8.44132 -3.61643,14.40894 -11.11982,17.88888c-6.8342,3.18646 -13.89621,5.9816 -21.02941,8.46927c-4.28561,1.50937 -6.05112,3.99705 -5.85179,8.30156c1.29565,29.57256 0.32747,59.14512 0.51257,88.71768c0.02848,4.45825 1.03937,7.68663 5.04022,10.64948c14.23792,10.53767 16.08885,29.8381 4.64156,43.25476c-10.53606,12.35451 -30.71119,13.59835 -43.41142,2.65538c-12.13071,-10.46779 -13.49755,-31.12386 -1.7655,-42.72369c5.32498,-5.26884 6.53521,-10.5796 6.50673,-17.37178c-0.12814,-23.99626 0.15662,-47.97855 0.25628,-71.97481c0.01424,-2.29201 0.39866,-4.6539 -0.68342,-6.76423c-1.2387,-0.79661 -2.33502,-0.36337 -3.44558,0.0559c-22.23963,8.6789 -44.46502,17.38576 -66.74737,25.96683c-4.45647,1.71901 -6.4213,3.68958 -5.69517,9.196c3.70186,28.30077 6.76301,56.67143 10.00926,85.01413c0.37019,3.22838 0.69766,6.4987 0.68342,9.74106c-0.09967,12.50824 6.13654,22.13749 13.12736,32.11614c25.91301,36.99365 35.31004,78.09616 29.31588,122.60873c-0.25628,1.83082 -0.34171,3.70356 -0.35595,5.56232c0,0.58698 0.45561,1.18793 1.05361,2.59948c3.55948,-4.01102 6.7203,-7.63073 9.92383,-11.2085c26.61067,-29.64244 56.42488,-55.37169 93.68551,-71.38783c33.81506,-14.54869 68.61254,-21.17317 104.91923,-9.0283c33.67268,11.26441 58.5748,44.30294 61.33696,78.71109c3.70186,46.02195 -17.28483,81.54815 -48.80759,112.12697c-36.97588,35.86162 -82.63689,55.14808 -133.60864,63.14217c-12.88532,2.0125 -25.82759,3.11658 -38.81257,3.85729c-6.26468,0.34939 -7.75967,3.06068 -6.17926,8.623c8.1868,29.01353 9.98078,58.7538 7.60305,88.4801c-3.03268,37.76232 -14.36606,73.47021 -33.70116,106.35501c-40.63502,69.13774 -99.7651,114.72644 -179.12727,134.05482c-8.94141,2.16623 -18.08216,3.54983 -27.19443,4.87752c-3.45981,0.48915 -5.55279,1.83082 -7.19015,4.73776c-3.55948,6.34496 -7.75967,12.28463 -12.70022,17.6513c-5.93721,6.45677 -10.73539,7.23941 -19.46324,3.21441m-175.31151,-526.5621c16.41632,45.70051 49.86119,73.74972 95.99205,87.97697c35.39547,10.92899 71.74488,14.15737 108.79194,11.52994c31.4658,-2.22213 61.93495,-7.81241 90.42503,-21.70425c55.89807,-27.2526 85.29938,-82.45657 74.52127,-141.96507c-10.26554,-56.75528 -44.3796,-94.40579 -99.62272,-112.37853c-54.75904,-17.80503 -110.54321,-17.39973 -165.87176,-2.08238c-33.13164,9.16805 -62.19123,25.89695 -82.3806,54.1558c-26.81,37.52473 -34.31339,78.89277 -21.85521,124.4675m195.15917,220.31279c-27.30833,1.0901 -54.44581,-0.58698 -81.39819,-4.96137c-51.88298,-8.42734 -99.87901,-26.87525 -144.47217,-54.1558c-8.5997,-5.26884 -12.65751,-3.46597 -15.40543,6.1493c-3.84424,13.44461 -6.1935,27.18272 -8.32918,40.94877c-3.47405,22.41701 -2.63402,23.78663 17.12822,35.45633c58.48937,34.53393 122.54578,51.73801 190.01928,56.29408c44.03789,2.97682 88.0473,0.573 131.35905,-9.39166c46.80004,-10.78923 91.10845,-27.07091 130.67563,-54.5611c5.09718,-3.53585 7.17591,-7.5329 6.59216,-13.45859c-1.87941,-19.21657 -4.62732,-38.27942 -10.19435,-56.85311c-2.61978,-8.73481 -5.1826,-9.6572 -13.04193,-4.75173c-61.49358,38.48905 -128.88165,57.56587 -202.93307,59.28488m440.97685,-201.71114c1.28141,-4.23463 2.79063,-8.41337 3.83,-12.68993c6.80573,-28.25885 -4.98327,-56.34998 -29.8142,-70.10206c-18.43811,-10.21623 -38.3,-9.57335 -58.10495,-5.35269c-34.12829,7.26736 -62.2909,25.40781 -87.83373,47.96457c-25.94149,22.90616 -46.05967,50.61995 -66.39142,78.13809c-2.90454,3.94114 -1.63736,6.72231 0.72613,9.95069c12.48666,17.07829 23.19357,35.16284 31.50852,54.54712c1.56617,3.67561 3.91543,4.89149 7.66,4.598c12.27309,-0.93637 24.56041,-1.57925 36.79078,-2.73924c31.52275,-3.00477 61.23729,-11.89331 88.85886,-27.21067c32.24889,-17.90286 57.9341,-41.85719 72.77001,-77.10389m-724.61045,105.69815c5.69517,0.0559 11.39034,0.04193 17.07127,0.19566c3.20353,0.09783 5.41041,-0.96432 6.74877,-3.95512c8.7848,-19.69175 20.24632,-37.8881 32.71874,-55.48349c2.20688,-3.1026 2.43468,-5.78594 0.1139,-8.87456c-26.38287,-35.07898 -53.57729,-69.50111 -89.96941,-95.39806c-29.1735,-20.7539 -60.69625,-35.56813 -98.09927,-32.61926c-39.26818,3.11658 -59.87045,38.48905 -56.25402,69.3893c2.97573,25.32395 15.7329,46.23158 33.34521,64.10649c41.70287,42.34634 94.81031,58.57212 154.32481,62.63905m399.74383,282.84003c-100.19224,30.28532 -198.84679,22.2493 -296.63282,-12.49427c1.18175,5.42257 4.57037,8.03602 7.64576,10.71935c55.10075,48.18818 118.81544,70.53531 192.82415,61.39521c44.77826,-5.53437 83.8044,-23.88446 118.26016,-52.11535c2.57706,-2.11033 4.45647,-4.34644 2.57706,-7.75651c-1.82245,-3.31224 -4.34257,-5.59028 -8.58547,-4.41632c-5.01175,1.39757 -10.00926,2.85104 -16.08885,4.66788z"/>
  </g>
 </g>

</svg>